<svg xmlns="http://www.w3.org/2000/svg" width="1254.896" height="1046.437" version="1.1"><defs><clipPath id="a"><path d="M961 591h1920v1080H961z" clip-rule="evenodd"/></clipPath></defs><g clip-path="url(#a)" transform="translate(-961 -624.563)"><path d="M717 1774.003h703.188l634.032-241.699L2213 1114.093l-463.27-487.03H717z" fill="none" stroke="#fff" stroke-width="5"/></g><defs><clipPath id="b"><path d="M1690.39 1671l363.83-138.7L2213 1114.09l-463.27-487.027H961V1671z" clip-rule="evenodd"/></clipPath></defs><g clip-path="url(#b)" transform="translate(-961 -624.563)"><path d="M1424.234 900L1499 763l-108 103.451z" fill="none" stroke="#fff" stroke-width="5"/></g><defs><clipPath id="c"><path d="M1690.39 1671l363.83-138.7L2213 1114.09l-463.27-487.027H961V1671z" clip-rule="evenodd"/></clipPath></defs><g clip-path="url(#c)" transform="translate(-961 -624.563)"><path d="M1498 764.692L1263 727l126.54 141z" fill="none" stroke="#fff" stroke-width="5"/></g><defs><clipPath id="d"><path d="M1690.39 1671l363.83-138.7L2213 1114.09l-463.27-487.027H961V1671z" clip-rule="evenodd"/></clipPath></defs><g clip-path="url(#d)" transform="translate(-961 -624.563)"><path d="M1423 899.6l183 100.4-108.136-237z" fill="none" stroke="#fff" stroke-width="5"/></g><defs><clipPath id="e"><path d="M1690.39 1671l363.83-138.7L2213 1114.09l-463.27-487.027H961V1671z" clip-rule="evenodd"/></clipPath></defs><g clip-path="url(#e)" transform="translate(-961 -624.563)"><path d="M1607.236 1000L1685 849.433 1499 763z" fill="none" stroke="#fff" stroke-width="5"/></g><defs><clipPath id="f"><path d="M1690.39 1671l363.83-138.7L2213 1114.09l-463.27-487.027H961V1671z" clip-rule="evenodd"/></clipPath></defs><g clip-path="url(#f)" transform="translate(-961 -624.563)"><path d="M1498 764l-65.36-210L1263 726.451z" fill="none" stroke="#fff" stroke-width="5"/></g><defs><clipPath id="g"><path d="M1690.39 1671l363.83-138.7L2213 1114.09l-463.27-487.027H961V1671z" clip-rule="evenodd"/></clipPath></defs><g clip-path="url(#g)" transform="translate(-961 -624.563)"><path d="M1679 591.549L1433 554l65.696 210z" fill="none" stroke="#fff" stroke-width="5"/></g><defs><clipPath id="h"><path d="M1690.39 1671l363.83-138.7L2213 1114.09l-463.27-487.027H961V1671z" clip-rule="evenodd"/></clipPath></defs><g clip-path="url(#h)" transform="translate(-961 -624.563)"><path d="M1423 900l102.591 206L1606 1000.229z" fill="none" stroke="#fff" stroke-width="5"/></g><defs><clipPath id="i"><path d="M1690.39 1671l363.83-138.7L2213 1114.09l-463.27-487.027H961V1671z" clip-rule="evenodd"/></clipPath></defs><g clip-path="url(#i)" transform="translate(-961 -624.563)"><path d="M1245 1053.108L1527 1106l-103.304-206z" fill="none" stroke="#fff" stroke-width="5"/></g><defs><clipPath id="j"><path d="M1690.39 1671l363.83-138.7L2213 1114.09l-463.27-487.027H961V1671z" clip-rule="evenodd"/></clipPath></defs><g clip-path="url(#j)" transform="translate(-961 -624.563)"><path d="M1245 1053l177-152.688L1388.809 867z" fill="none" stroke="#fff" stroke-width="5"/></g><defs><clipPath id="k"><path d="M1690.39 1671l363.83-138.7L2213 1114.09l-463.27-487.027H961V1671z" clip-rule="evenodd"/></clipPath></defs><g clip-path="url(#k)" transform="translate(-961 -624.563)"><path d="M1263.123 727L1245 1054l145-186.457z" fill="none" stroke="#fff" stroke-width="5"/></g><defs><clipPath id="l"><path d="M1690.39 1671l363.83-138.7L2213 1114.09l-463.27-487.027H961V1671z" clip-rule="evenodd"/></clipPath></defs><g clip-path="url(#l)" transform="translate(-961 -624.563)"><path d="M1685 851l-6.939-260L1499 764.343z" fill="none" stroke="#fff" stroke-width="5"/></g><defs><clipPath id="m"><path d="M1690.39 1671l363.83-138.7L2213 1114.09l-463.27-487.027H961V1671z" clip-rule="evenodd"/></clipPath></defs><g clip-path="url(#m)" transform="translate(-961 -624.563)"><path d="M1432 552.902L1379.359 451 1263 726z" fill="none" stroke="#fff" stroke-width="5"/></g><defs><clipPath id="n"><path d="M1690.39 1671l363.83-138.7L2213 1114.09l-463.27-487.027H961V1671z" clip-rule="evenodd"/></clipPath></defs><g clip-path="url(#n)" transform="translate(-961 -624.563)"><path d="M1306 1341l244-55.811L1526.278 1108z" fill="none" stroke="#fff" stroke-width="5"/></g><defs><clipPath id="o"><path d="M1690.39 1671l363.83-138.7L2213 1114.09l-463.27-487.027H961V1671z" clip-rule="evenodd"/></clipPath></defs><g clip-path="url(#o)" transform="translate(-961 -624.563)"><path d="M1071 965l106.946 149 68.054-59.87z" fill="none" stroke="#fff" stroke-width="5"/></g><defs><clipPath id="p"><path d="M1690.39 1671l363.83-138.7L2213 1114.09l-463.27-487.027H961V1671z" clip-rule="evenodd"/></clipPath></defs><g clip-path="url(#p)" transform="translate(-961 -624.563)"><path d="M1265 727l-194 237.944L1246.859 1054z" fill="none" stroke="#fff" stroke-width="5"/></g><defs><clipPath id="q"><path d="M1690.39 1671l363.83-138.7L2213 1114.09l-463.27-487.027H961V1671z" clip-rule="evenodd"/></clipPath></defs><g clip-path="url(#q)" transform="translate(-961 -624.563)"><path d="M953.975 914.412L1070 966 940 676z" fill="none" stroke="#fff" stroke-width="5"/></g><defs><clipPath id="r"><path d="M1690.39 1671l363.83-138.7L2213 1114.09l-463.27-487.027H961V1671z" clip-rule="evenodd"/></clipPath></defs><g clip-path="url(#r)" transform="translate(-961 -624.563)"><path d="M1527 1108.318L1727 1265l-118.884-263z" fill="none" stroke="#fff" stroke-width="5"/></g><defs><clipPath id="s"><path d="M1690.39 1671l363.83-138.7L2213 1114.09l-463.27-487.027H961V1671z" clip-rule="evenodd"/></clipPath></defs><g clip-path="url(#s)" transform="translate(-961 -624.563)"><path d="M1609 1000.999L1933 1026l-246.128-175z" fill="none" stroke="#fff" stroke-width="5"/></g><defs><clipPath id="t"><path d="M1690.39 1671l363.83-138.7L2213 1114.09l-463.27-487.027H961V1671z" clip-rule="evenodd"/></clipPath></defs><g clip-path="url(#t)" transform="translate(-961 -624.563)"><path d="M1306.422 1339L1527 1106.834 1245 1054z" fill="none" stroke="#fff" stroke-width="5"/></g><defs><clipPath id="u"><path d="M1690.39 1671l363.83-138.7L2213 1114.09l-463.27-487.027H961V1671z" clip-rule="evenodd"/></clipPath></defs><g clip-path="url(#u)" transform="translate(-961 -624.563)"><path d="M1059.87 439L1007 606.195 1263 726z" fill="none" stroke="#fff" stroke-width="5"/></g><defs><clipPath id="v"><path d="M1690.39 1671l363.83-138.7L2213 1114.09l-463.27-487.027H961V1671z" clip-rule="evenodd"/></clipPath></defs><g clip-path="url(#v)" transform="translate(-961 -624.563)"><path d="M1060 439l203.132 287L1380 451.537z" fill="none" stroke="#fff" stroke-width="5"/></g><defs><clipPath id="w"><path d="M1690.39 1671l363.83-138.7L2213 1114.09l-463.27-487.027H961V1671z" clip-rule="evenodd"/></clipPath></defs><g clip-path="url(#w)" transform="translate(-961 -624.563)"><path d="M1550.78 1284l176.22-20.79L1527 1108z" fill="none" stroke="#fff" stroke-width="5"/></g><defs><clipPath id="x"><path d="M1690.39 1671l363.83-138.7L2213 1114.09l-463.27-487.027H961V1671z" clip-rule="evenodd"/></clipPath></defs><g clip-path="url(#x)" transform="translate(-961 -624.563)"><path d="M1685.956 851L1974 662.285 1679 591z" fill="none" stroke="#fff" stroke-width="5"/></g><defs><clipPath id="y"><path d="M1690.39 1671l363.83-138.7L2213 1114.09l-463.27-487.027H961V1671z" clip-rule="evenodd"/></clipPath></defs><g clip-path="url(#y)" transform="translate(-961 -624.563)"><path d="M1727.2 1265l205.8-237.84-324-25.16z" fill="none" stroke="#fff" stroke-width="5"/></g><defs><clipPath id="z"><path d="M1690.39 1671l363.83-138.7L2213 1114.09l-463.27-487.027H961V1671z" clip-rule="evenodd"/></clipPath></defs><g clip-path="url(#z)" transform="translate(-961 -624.563)"><path d="M824 1101l271.444 184L1178 1114.963z" fill="none" stroke="#fff" stroke-width="5"/></g><defs><clipPath id="A"><path d="M1690.39 1671l363.83-138.7L2213 1114.09l-463.27-487.027H961V1671z" clip-rule="evenodd"/></clipPath></defs><g clip-path="url(#A)" transform="translate(-961 -624.563)"><path d="M940 676l129.473 290L1263 727.588z" fill="none" stroke="#fff" stroke-width="5"/></g><defs><clipPath id="B"><path d="M1690.39 1671l363.83-138.7L2213 1114.09l-463.27-487.027H961V1671z" clip-rule="evenodd"/></clipPath></defs><g clip-path="url(#B)" transform="translate(-961 -624.563)"><path d="M1177 1113.777L1307 1339l-61.503-285-68.497 59.778z" fill="none" stroke="#fff" stroke-width="5"/></g><defs><clipPath id="C"><path d="M1690.39 1671l363.83-138.7L2213 1114.09l-463.27-487.027H961V1671z" clip-rule="evenodd"/></clipPath></defs><g clip-path="url(#C)" transform="translate(-961 -624.563)"><path d="M1551 1284.865L1641.275 1449 1726 1264z" fill="none" stroke="#fff" stroke-width="5"/></g><defs><clipPath id="D"><path d="M1690.39 1671l363.83-138.7L2213 1114.09l-463.27-487.027H961V1671z" clip-rule="evenodd"/></clipPath></defs><g clip-path="url(#D)" transform="translate(-961 -624.563)"><path d="M1095 1284.197L1308 1340l-130.32-226z" fill="none" stroke="#fff" stroke-width="5"/></g><defs><clipPath id="E"><path d="M1690.39 1671l363.83-138.7L2213 1114.09l-463.27-487.027H961V1671z" clip-rule="evenodd"/></clipPath></defs><g clip-path="url(#E)" transform="translate(-961 -624.563)"><path d="M1933.004 1027L1993 800l-307 51.523z" fill="none" stroke="#fff" stroke-width="5"/></g><defs><clipPath id="F"><path d="M1690.39 1671l363.83-138.7L2213 1114.09l-463.27-487.027H961V1671z" clip-rule="evenodd"/></clipPath></defs><g clip-path="url(#F)" transform="translate(-961 -624.563)"><path d="M1993 799.204L1974.862 662 1686 851z" fill="none" stroke="#fff" stroke-width="5"/></g><defs><clipPath id="G"><path d="M1690.39 1671l363.83-138.7L2213 1114.09l-463.27-487.027H961V1671z" clip-rule="evenodd"/></clipPath></defs><g clip-path="url(#G)" transform="translate(-961 -624.563)"><path d="M1006.83 606L940 674.371 1263 726z" fill="none" stroke="#fff" stroke-width="5"/></g><defs><clipPath id="H"><path d="M1690.39 1671l363.83-138.7L2213 1114.09l-463.27-487.027H961V1671z" clip-rule="evenodd"/></clipPath></defs><g clip-path="url(#H)" transform="translate(-961 -624.563)"><path d="M1007 606.732L919 388l20.952 287z" fill="none" stroke="#fff" stroke-width="5"/></g><defs><clipPath id="I"><path d="M1690.39 1671l363.83-138.7L2213 1114.09l-463.27-487.027H961V1671z" clip-rule="evenodd"/></clipPath></defs><g clip-path="url(#I)" transform="translate(-961 -624.563)"><path d="M1974 663l-91.855-209L1679 591.95z" fill="none" stroke="#fff" stroke-width="5"/></g><defs><clipPath id="J"><path d="M1690.39 1671l363.83-138.7L2213 1114.09l-463.27-487.027H961V1671z" clip-rule="evenodd"/></clipPath></defs><g clip-path="url(#J)" transform="translate(-961 -624.563)"><path d="M824 1100.091L1178 1114l-107.743-149z" fill="none" stroke="#fff" stroke-width="5"/></g><defs><clipPath id="K"><path d="M1690.39 1671l363.83-138.7L2213 1114.09l-463.27-487.027H961V1671z" clip-rule="evenodd"/></clipPath></defs><g clip-path="url(#K)" transform="translate(-961 -624.563)"><path d="M1933 1026.943l75 25.057-15.279-252z" fill="none" stroke="#fff" stroke-width="5"/></g><defs><clipPath id="L"><path d="M1690.39 1671l363.83-138.7L2213 1114.09l-463.27-487.027H961V1671z" clip-rule="evenodd"/></clipPath></defs><g clip-path="url(#L)" transform="translate(-961 -624.563)"><path d="M1971.887 1270L2008 1051.093 1933 1026z" fill="none" stroke="#fff" stroke-width="5"/></g><defs><clipPath id="M"><path d="M1690.39 1671l363.83-138.7L2213 1114.09l-463.27-487.027H961V1671z" clip-rule="evenodd"/></clipPath></defs><g clip-path="url(#M)" transform="translate(-961 -624.563)"><path d="M1974.4 663l54.6-185.3-147-23.7z" fill="none" stroke="#fff" stroke-width="5"/></g><defs><clipPath id="N"><path d="M1690.39 1671l363.83-138.7L2213 1114.09l-463.27-487.027H961V1671z" clip-rule="evenodd"/></clipPath></defs><g clip-path="url(#N)" transform="translate(-961 -624.563)"><path d="M1992.908 800L2037 644l-62 19.502z" fill="none" stroke="#fff" stroke-width="5"/></g><defs><clipPath id="O"><path d="M1690.39 1671l363.83-138.7L2213 1114.09l-463.27-487.027H961V1671z" clip-rule="evenodd"/></clipPath></defs><g clip-path="url(#O)" transform="translate(-961 -624.563)"><path d="M2173 787.461L2036.21 644 1992 800z" fill="none" stroke="#fff" stroke-width="5"/></g><defs><clipPath id="P"><path d="M1690.39 1671l363.83-138.7L2213 1114.09l-463.27-487.027H961V1671z" clip-rule="evenodd"/></clipPath></defs><g clip-path="url(#P)" transform="translate(-961 -624.563)"><path d="M1555.195 1506l86.805-55.947L1551 1285z" fill="none" stroke="#fff" stroke-width="5"/></g><defs><clipPath id="Q"><path d="M1690.39 1671l363.83-138.7L2213 1114.09l-463.27-487.027H961V1671z" clip-rule="evenodd"/></clipPath></defs><g clip-path="url(#Q)" transform="translate(-961 -624.563)"><path d="M1725 1263.031l246 6.969-39.134-244z" fill="none" stroke="#fff" stroke-width="5"/></g><defs><clipPath id="R"><path d="M1690.39 1671l363.83-138.7L2213 1114.09l-463.27-487.027H961V1671z" clip-rule="evenodd"/></clipPath></defs><g clip-path="url(#R)" transform="translate(-961 -624.563)"><path d="M1352.015 1487L1550 1285l-244 55.721z" fill="none" stroke="#fff" stroke-width="5"/></g><defs><clipPath id="S"><path d="M1690.39 1671l363.83-138.7L2213 1114.09l-463.27-487.027H961V1671z" clip-rule="evenodd"/></clipPath></defs><g clip-path="url(#S)" transform="translate(-961 -624.563)"><path d="M1010 1487l342-1.395L1306.114 1339z" fill="none" stroke="#fff" stroke-width="5"/></g><defs><clipPath id="T"><path d="M1690.39 1671l363.83-138.7L2213 1114.09l-463.27-487.027H961V1671z" clip-rule="evenodd"/></clipPath></defs><g clip-path="url(#T)" transform="translate(-961 -624.563)"><path d="M2037 642.518L2028.73 477 1975 662z" fill="none" stroke="#fff" stroke-width="5"/></g><defs><clipPath id="U"><path d="M1690.39 1671l363.83-138.7L2213 1114.09l-463.27-487.027H961V1671z" clip-rule="evenodd"/></clipPath></defs><g clip-path="url(#U)" transform="translate(-961 -624.563)"><path d="M1831.228 1567L1971 1270.98l-246-6.98z" fill="none" stroke="#fff" stroke-width="5"/></g><defs><clipPath id="V"><path d="M1690.39 1671l363.83-138.7L2213 1114.09l-463.27-487.027H961V1671z" clip-rule="evenodd"/></clipPath></defs><g clip-path="url(#V)" transform="translate(-961 -624.563)"><path d="M1832 1566l181-273.662-42.836-22.338z" fill="none" stroke="#fff" stroke-width="5"/></g><defs><clipPath id="W"><path d="M1690.39 1671l363.83-138.7L2213 1114.09l-463.27-487.027H961V1671z" clip-rule="evenodd"/></clipPath></defs><g clip-path="url(#W)" transform="translate(-961 -624.563)"><path d="M1353 1487.819L1555 1506l-4.175-221z" fill="none" stroke="#fff" stroke-width="5"/></g><defs><clipPath id="X"><path d="M1690.39 1671l363.83-138.7L2213 1114.09l-463.27-487.027H961V1671z" clip-rule="evenodd"/></clipPath></defs><g clip-path="url(#X)" transform="translate(-961 -624.563)"><path d="M953.987 912L824 1098l246-134.641z" fill="none" stroke="#fff" stroke-width="5"/></g><defs><clipPath id="Y"><path d="M1690.39 1671l363.83-138.7L2213 1114.09l-463.27-487.027H961V1671z" clip-rule="evenodd"/></clipPath></defs><g clip-path="url(#Y)" transform="translate(-961 -624.563)"><path d="M1095.056 1285L1010 1489l297-148.112z" fill="none" stroke="#fff" stroke-width="5"/></g><defs><clipPath id="Z"><path d="M1690.39 1671l363.83-138.7L2213 1114.09l-463.27-487.027H961V1671z" clip-rule="evenodd"/></clipPath></defs><g clip-path="url(#Z)" transform="translate(-961 -624.563)"><path d="M824 1101l120.126 215L1095 1285.29z" fill="none" stroke="#fff" stroke-width="5"/></g><defs><clipPath id="aa"><path d="M1690.39 1671l363.83-138.7L2213 1114.09l-463.27-487.027H961V1671z" clip-rule="evenodd"/></clipPath></defs><g clip-path="url(#aa)" transform="translate(-961 -624.563)"><path d="M2038.378 641L2305 464l-275 12.449z" fill="none" stroke="#fff" stroke-width="5"/></g><defs><clipPath id="ab"><path d="M1690.39 1671l363.83-138.7L2213 1114.09l-463.27-487.027H961V1671z" clip-rule="evenodd"/></clipPath></defs><g clip-path="url(#ab)" transform="translate(-961 -624.563)"><path d="M2007.199 1053L2173 788l-181 12.556z" fill="none" stroke="#fff" stroke-width="5"/></g><defs><clipPath id="ac"><path d="M1690.39 1671l363.83-138.7L2213 1114.09l-463.27-487.027H961V1671z" clip-rule="evenodd"/></clipPath></defs><g clip-path="url(#ac)" transform="translate(-961 -624.563)"><path d="M2258.738 796.388L2176 788l122 355z" fill="none" stroke="#fff" stroke-width="5"/></g><defs><clipPath id="ad"><path d="M1690.39 1671l363.83-138.7L2213 1114.09l-463.27-487.027H961V1671z" clip-rule="evenodd"/></clipPath></defs><g clip-path="url(#ad)" transform="translate(-961 -624.563)"><path d="M1972 1270.62l44 22.38-7.1-242z" fill="none" stroke="#fff" stroke-width="5"/></g><defs><clipPath id="ae"><path d="M1690.39 1671l363.83-138.7L2213 1114.09l-463.27-487.027H961V1671z" clip-rule="evenodd"/></clipPath></defs><g clip-path="url(#ae)" transform="translate(-961 -624.563)"><path d="M1833 1567l-105.953-303L1642 1449.71z" fill="none" stroke="#fff" stroke-width="5"/></g><defs><clipPath id="af"><path d="M1690.39 1671l363.83-138.7L2213 1114.09l-463.27-487.027H961V1671z" clip-rule="evenodd"/></clipPath></defs><g clip-path="url(#af)" transform="translate(-961 -624.563)"><path d="M945 1315.735L1010.712 1489 1096 1285z" fill="none" stroke="#fff" stroke-width="5"/></g><defs><clipPath id="ag"><path d="M1690.39 1671l363.83-138.7L2213 1114.09l-463.27-487.027H961V1671z" clip-rule="evenodd"/></clipPath></defs><g clip-path="url(#ag)" transform="translate(-961 -624.563)"><path d="M1685 1679l-43.335-230-86.665 55.76z" fill="none" stroke="#fff" stroke-width="5"/></g><defs><clipPath id="ah"><path d="M1690.39 1671l363.83-138.7L2213 1114.09l-463.27-487.027H961V1671z" clip-rule="evenodd"/></clipPath></defs><g clip-path="url(#ah)" transform="translate(-961 -624.563)"><path d="M898 1416.262L1010 1487l-65.798-172z" fill="none" stroke="#fff" stroke-width="5"/></g><defs><clipPath id="ai"><path d="M1690.39 1671l363.83-138.7L2213 1114.09l-463.27-487.027H961V1671z" clip-rule="evenodd"/></clipPath></defs><g clip-path="url(#ai)" transform="translate(-961 -624.563)"><path d="M2175.883 788L2272 751.649 2038 644z" fill="none" stroke="#fff" stroke-width="5"/></g><defs><clipPath id="aj"><path d="M1690.39 1671l363.83-138.7L2213 1114.09l-463.27-487.027H961V1671z" clip-rule="evenodd"/></clipPath></defs><g clip-path="url(#aj)" transform="translate(-961 -624.563)"><path d="M2295 1143l-121.043-355L2007 1053.55z" fill="none" stroke="#fff" stroke-width="5"/></g><defs><clipPath id="ak"><path d="M1690.39 1671l363.83-138.7L2213 1114.09l-463.27-487.027H961V1671z" clip-rule="evenodd"/></clipPath></defs><g clip-path="url(#ak)" transform="translate(-961 -624.563)"><path d="M2258.103 795L2272 750l-96 36.56z" fill="none" stroke="#fff" stroke-width="5"/></g><defs><clipPath id="al"><path d="M1690.39 1671l363.83-138.7L2213 1114.09l-463.27-487.027H961V1671z" clip-rule="evenodd"/></clipPath></defs><g clip-path="url(#al)" transform="translate(-961 -624.563)"><path d="M1684 1679.463L1554.175 1505 1409 1766z" fill="none" stroke="#fff" stroke-width="5"/></g><defs><clipPath id="am"><path d="M1690.39 1671l363.83-138.7L2213 1114.09l-463.27-487.027H961V1671z" clip-rule="evenodd"/></clipPath></defs><g clip-path="url(#am)" transform="translate(-961 -624.563)"><path d="M1685.223 1679L1833 1566.08 1642 1449z" fill="none" stroke="#fff" stroke-width="5"/></g><defs><clipPath id="an"><path d="M1690.39 1671l363.83-138.7L2213 1114.09l-463.27-487.027H961V1671z" clip-rule="evenodd"/></clipPath></defs><g clip-path="url(#an)" transform="translate(-961 -624.563)"><path d="M1410.119 1766L1555 1505.132 1353 1487z" fill="none" stroke="#fff" stroke-width="5"/></g><defs><clipPath id="ao"><path d="M1690.39 1671l363.83-138.7L2213 1114.09l-463.27-487.027H961V1671z" clip-rule="evenodd"/></clipPath></defs><g clip-path="url(#ao)" transform="translate(-961 -624.563)"><path d="M2294.606 1256.738L2296 1141l-282 152z" fill="none" stroke="#fff" stroke-width="5"/></g><defs><clipPath id="ap"><path d="M1690.39 1671l363.83-138.7L2213 1114.09l-463.27-487.027H961V1671z" clip-rule="evenodd"/></clipPath></defs><g clip-path="url(#ap)" transform="translate(-961 -624.563)"><path d="M2013.96 1293L2295 1140.52 2007 1051z" fill="none" stroke="#fff" stroke-width="5"/></g><defs><clipPath id="aq"><path d="M1690.39 1671l363.83-138.7L2213 1114.09l-463.27-487.027H961V1671z" clip-rule="evenodd"/></clipPath></defs><g clip-path="url(#aq)" transform="translate(-961 -624.563)"><path d="M1029.502 1739.069L1205 1753l-195-265z" fill="none" stroke="#fff" stroke-width="5"/></g><defs><clipPath id="ar"><path d="M1690.39 1671l363.83-138.7L2213 1114.09l-463.27-487.027H961V1671z" clip-rule="evenodd"/></clipPath></defs><g clip-path="url(#ar)" transform="translate(-961 -624.563)"><path d="M2272.824 749L2305 464l-267 177.944z" fill="none" stroke="#fff" stroke-width="5"/></g><defs><clipPath id="as"><path d="M1690.39 1671l363.83-138.7L2213 1114.09l-463.27-487.027H961V1671z" clip-rule="evenodd"/></clipPath></defs><g clip-path="url(#as)" transform="translate(-961 -624.563)"><path d="M1204.634 1754L1352 1487l-342 1.396z" fill="none" stroke="#fff" stroke-width="5"/></g><defs><clipPath id="at"><path d="M1690.39 1671l363.83-138.7L2213 1114.09l-463.27-487.027H961V1671z" clip-rule="evenodd"/></clipPath></defs><g clip-path="url(#at)" transform="translate(-961 -624.563)"><path d="M1205 1753.441L1410 1766l-57.178-279z" fill="none" stroke="#fff" stroke-width="5"/></g><defs><clipPath id="au"><path d="M1690.39 1671l363.83-138.7L2213 1114.09l-463.27-487.027H961V1671z" clip-rule="evenodd"/></clipPath></defs><g clip-path="url(#au)" transform="translate(-961 -624.563)"><path d="M1832 1566l346-135.097L2014.034 1293z" fill="none" stroke="#fff" stroke-width="5"/></g><defs><clipPath id="av"><path d="M1690.39 1671l363.83-138.7L2213 1114.09l-463.27-487.027H961V1671z" clip-rule="evenodd"/></clipPath></defs><g clip-path="url(#av)" transform="translate(-961 -624.563)"><path d="M1930.66 1660L2178 1431l-346 135.445z" fill="none" stroke="#fff" stroke-width="5"/></g><defs><clipPath id="aw"><path d="M1690.39 1671l363.83-138.7L2213 1114.09l-463.27-487.027H961V1671z" clip-rule="evenodd"/></clipPath></defs><g clip-path="url(#aw)" transform="translate(-961 -624.563)"><path d="M2178.347 1430L2294 1257l-280 35.985z" fill="none" stroke="#fff" stroke-width="5"/></g><defs><clipPath id="ax"><path d="M1690.39 1671l363.83-138.7L2213 1114.09l-463.27-487.027H961V1671z" clip-rule="evenodd"/></clipPath></defs><g clip-path="url(#ax)" transform="translate(-961 -624.563)"><path d="M2015 1756.172L1930.098 1660 1692 1975l323-218.827z" fill="none" stroke="#fff" stroke-width="5"/></g><defs><clipPath id="ay"><path d="M1690.39 1671l363.83-138.7L2213 1114.09l-463.27-487.027H961V1671z" clip-rule="evenodd"/></clipPath></defs><g clip-path="url(#ay)" transform="translate(-961 -624.563)"><path d="M1684 1678l247-19.507-99.07-93.493z" fill="none" stroke="#fff" stroke-width="5"/></g><defs><clipPath id="az"><path d="M1690.39 1671l363.83-138.7L2213 1114.09l-463.27-487.027H961V1671z" clip-rule="evenodd"/></clipPath></defs><g clip-path="url(#az)" transform="translate(-961 -624.563)"><path d="M1029 1739.251L1009.472 1488 870 1756z" fill="none" stroke="#fff" stroke-width="5"/></g><defs><clipPath id="aA"><path d="M1690.39 1671l363.83-138.7L2213 1114.09l-463.27-487.027H961V1671z" clip-rule="evenodd"/></clipPath></defs><g clip-path="url(#aA)" transform="translate(-961 -624.563)"><path d="M1692.375 1975L1931 1660l-247 19.485z" fill="none" stroke="#fff" stroke-width="5"/></g><defs><clipPath id="aB"><path d="M1690.39 1671l363.83-138.7L2213 1114.09l-463.27-487.027H961V1671z" clip-rule="evenodd"/></clipPath></defs><g clip-path="url(#aB)" transform="translate(-961 -624.563)"><path d="M871.51 1756L1011 1488l-219 230.314z" fill="none" stroke="#fff" stroke-width="5"/></g><defs><clipPath id="aC"><path d="M1690.39 1671l363.83-138.7L2213 1114.09l-463.27-487.027H961V1671z" clip-rule="evenodd"/></clipPath></defs><g clip-path="url(#aC)" transform="translate(-961 -624.563)"><path d="M2181 1431.487L2297 1472v-215z" fill="none" stroke="#fff" stroke-width="5"/></g><defs><clipPath id="aD"><path d="M1690.39 1671l363.83-138.7L2213 1114.09l-463.27-487.027H961V1671z" clip-rule="evenodd"/></clipPath></defs><g clip-path="url(#aD)" transform="translate(-961 -624.563)"><path d="M2213.114 1679L2297 1471.415 2181 1431z" fill="none" stroke="#fff" stroke-width="5"/></g><defs><clipPath id="aE"><path d="M1690.39 1671l363.83-138.7L2213 1114.09l-463.27-487.027H961V1671z" clip-rule="evenodd"/></clipPath></defs><g clip-path="url(#aE)" transform="translate(-961 -624.563)"><path d="M1931 1659.523L2211 1679l-32.066-248z" fill="none" stroke="#fff" stroke-width="5"/></g><defs><clipPath id="aF"><path d="M1690.39 1671l363.83-138.7L2213 1114.09l-463.27-487.027H961V1671z" clip-rule="evenodd"/></clipPath></defs><g clip-path="url(#aF)" transform="translate(-961 -624.563)"><path d="M792 1718l219-229.933L899.407 1417z" fill="none" stroke="#fff" stroke-width="5"/></g><defs><clipPath id="aG"><path d="M1690.39 1671l363.83-138.7L2213 1114.09l-463.27-487.027H961V1671z" clip-rule="evenodd"/></clipPath></defs><g clip-path="url(#aG)" transform="translate(-961 -624.563)"><path d="M2015.958 1756L2211 1679.45 1931 1660z" fill="none" stroke="#fff" stroke-width="5"/></g><defs><clipPath id="aH"><path d="M1690.39 1671l363.83-138.7L2213 1114.09l-463.27-487.027H961V1671z" clip-rule="evenodd"/></clipPath></defs><g clip-path="url(#aH)" transform="translate(-961 -624.563)"><path d="M2211 1679.076L2433 1714l-138.195-243z" fill="none" stroke="#fff" stroke-width="5"/></g></svg>